<?xml version="1.0" encoding="UTF-8"?>
<svg width="1100" height="100" version="1.1" viewBox="0 0 1100 100" xml:space="preserve" xmlns="http://www.w3.org/2000/svg">
  <path d="m737 85h18s7.8906-3.0413 8.6319-4.8403c10.368-25.16 23.146-46.757 33.268-49.173 10.1 0.01355 24.1 0.01355 34.1 0.01355 15 4 29 36 34 48 4 6 7.5499 5.719 12 7h125c23-4 15-28-4-30 20-3 27 4 30 9 12 19 12 21 32 22h45" fill="none" stroke="#00b0ed" stroke-linecap="round" stroke-linejoin="round" stroke-width="4"/>
  <g aria-label="SURFSCHOOL VEERSE DAM" fill="#00b0ed"><path d="m89.752 57.808q0 4.56-0.672 6.96-1.296 4.512-4.944 4.56-1.008 0.048-3.504 0.336-2.448 0.336-2.544 0.336-0.192 0-1.44-0.144-1.488-0.144-1.92-0.144-1.152-0.24-3.552-0.672-4.176-0.432-4.176-10.176 0-3.552 0.528-4.656 0.912-1.968 4.272-1.968 4.272 0 4.272 3.936v6.288q0 0.816 0.72 1.68t1.584 0.864q2.448 0 2.448-4.56 0-0.672-0.096-1.536-0.048-0.864-0.048-0.912 0-3.984 0.048-3.456-0.144-2.304-0.96-3.264-1.344-1.488-4.704-2.976-4.128-1.824-5.136-2.496-2.496-1.68-2.736-4.128-0.192-2.448-0.192-4.464 0-6.912 2.352-8.976 2.112-1.776 8.928-1.776 6.144 0 8.4 1.392 3.072 1.92 3.072 7.824 0 4.608-4.512 4.608-3.264 0-4.128-2.352-0.24-2.16-0.528-4.32-0.288-2.352-2.208-2.352-2.4 0-2.4 4.032 0 0.48 0.048 1.104t0.048 0.624q0 3.456-0.048 2.832 0.096 1.728 0.96 2.784 1.248 1.632 4.32 2.88 4.368 1.728 4.944 2.064 2.496 1.488 3.072 3.984 0.432 1.872 0.432 6.24z"/><path d="m116.23 60.736q0 5.28-3.408 7.104-2.16 1.152-7.152 1.152-6.192 0-8.4-1.68-2.544-1.872-2.544-7.44v-27.792q0-3.792 4.32-3.792 1.776 0 2.88 0.912 1.296 0.96 1.296 2.832v30.048q0 0.912 0.576 1.584 0.672 0.816 1.68 0.816 0.912 0 1.584-0.768t0.672-1.68v-29.952q0-3.792 4.224-3.792 1.728 0 2.976 0.96 1.296 0.96 1.296 2.784z"/><path d="m145.04 61.024q0 0.48 0 1.488 0.048 1.056 0.048 1.536 0 2.688-0.768 3.936-1.056 1.632-3.84 1.632-2.016 0-3.264-1.056t-1.248-2.928v-10.992q0-0.96-0.768-1.776t-1.728-0.816q-0.912 0-1.68 1.056-0.624 0.864-0.624 1.488v11.088q0 2.112-1.536 3.168-1.2 0.768-2.928 0.768-1.92 0-3.168-1.056-1.248-1.008-1.248-2.784v-35.328q0-3.072 3.072-3.792 0.912-0.192 5.088-0.192 6.384 0 8.544 0.384 3.312 0.672 4.656 2.928 1.392 2.4 1.392 7.872 0 3.888-0.624 5.616 0 0.048-1.056 2.544-0.624 1.584-0.624 2.304 0 0.576 0.768 2.448 0.912 2.064 1.104 2.976 0.432 2.208 0.432 7.488zm-9.072-22.8q0-0.192 0-0.912 0.048-0.768 0.048-1.296 0-4.752-2.448-4.752t-2.448 4.848q0 0.528 0 1.248 0.048 0.72 0.048 0.816 0 0.048-0.048 0.72 0 0.672 0 1.248 0 4.944 2.448 4.944t2.448-4.704q0-0.528-0.048-1.296 0-0.72 0-0.864z"/><path d="m161.45 45.712q0 0.864-0.864 1.392-0.768 0.336-2.16 1.104-0.384 0.24-0.96 1.152-0.528 0.912-0.528 1.488v13.392q0 2.016-1.44 2.976-1.104 0.768-2.736 0.768-1.728 0-2.832-0.912-1.296-1.008-1.296-2.88v-32.928q0-2.88 2.832-3.6 0.864-0.192 4.224-0.192 5.76 0 5.76 1.584 0 0.624-1.248 1.296-0.864 0.528-1.776 1.008-1.008 0.768-1.248 1.872-0.24 0.912-0.24 4.176 0 4.128 0.72 5.088 0.528 0.768 1.776 1.392 1.44 0.72 1.824 1.104 0.192 0.192 0.192 0.72z"/><path d="m189.41 57.808q0 4.56-0.672 6.96-1.296 4.512-4.944 4.56-1.008 0.048-3.504 0.336-2.448 0.336-2.544 0.336-0.192 0-1.44-0.144-1.488-0.144-1.92-0.144-1.152-0.24-3.552-0.672-4.176-0.432-4.176-10.176 0-3.552 0.528-4.656 0.912-1.968 4.272-1.968 4.272 0 4.272 3.936v6.288q0 0.816 0.72 1.68t1.584 0.864q2.448 0 2.448-4.56 0-0.672-0.096-1.536-0.048-0.864-0.048-0.912 0-3.984 0.048-3.456-0.144-2.304-0.96-3.264-1.344-1.488-4.704-2.976-4.128-1.824-5.136-2.496-2.496-1.68-2.736-4.128-0.192-2.448-0.192-4.464 0-6.912 2.352-8.976 2.112-1.776 8.928-1.776 6.144 0 8.4 1.392 3.072 1.92 3.072 7.824 0 4.608-4.512 4.608-3.264 0-4.128-2.352-0.24-2.16-0.528-4.32-0.288-2.352-2.208-2.352-2.4 0-2.4 4.032 0 0.48 0.048 1.104t0.048 0.624q0 3.456-0.048 2.832 0.096 1.728 0.96 2.784 1.248 1.632 4.32 2.88 4.368 1.728 4.944 2.064 2.496 1.488 3.072 3.984 0.432 1.872 0.432 6.24z"/><path d="m213.39 57.232q0 6.672-1.872 8.688-2.016 2.208-8.736 2.208-5.328 0-7.632-1.248-3.12-1.728-3.12-6.528v-25.248q0-4.944 3.552-6.72 2.256-1.056 7.104-1.056 0.192 0 1.488 0.144 1.344 0.096 1.968 0.144 4.368 0.192 5.904 2.64 1.152 1.728 1.152 5.616 0 2.304-0.72 3.312-0.912 1.296-3.36 1.296-3.072 0-3.84-2.256-0.24-2.064-0.528-4.224-0.24-2.208-2.112-2.208-0.768 0-1.536 0.816-0.72 0.768-0.72 1.584v27.072q0 0.864 0.624 1.584 0.624 0.768 1.632 0.768 0.864 0 1.536-0.768 0.72-0.768 0.72-1.632v-5.808q0-3.744 4.224-3.744 2.736 0 3.648 1.68 0.624 1.104 0.624 3.888z"/><path d="m236.54 64.24q0 2.016-1.44 2.976-1.104 0.768-2.688 0.768-1.776 0-2.88-0.912-1.296-1.008-1.296-2.88v-13.632q0-0.816-0.816-1.68-0.768-0.912-1.632-0.912t-1.632 0.96q-0.768 0.912-0.768 1.632v13.68q0 1.728-1.152 2.736t-2.832 1.008q-1.728 0-2.88-0.912-1.296-1.008-1.296-2.88v-32.928q0-1.776 1.152-2.784 1.2-1.008 3.024-1.008 1.728 0 2.832 1.056 1.152 1.056 1.152 2.688v9.216q0 0.816 0.768 1.68 0.816 0.864 1.632 0.864 0.912 0 1.68-0.912t0.768-1.68v-9.12q0-2.016 1.44-3.024 1.104-0.768 2.736-0.768t2.784 0.864q1.344 1.056 1.344 2.88z"/><path d="m261.47 61.216q0 3.504-1.488 5.664-2.016 2.784-6.24 2.832-0.528 0-1.872 0.144-1.296 0.144-1.488 0.144-0.096 0-1.488-0.144-1.344-0.144-2.064-0.144-8.112-0.24-8.112-8.208v-26.592q0-5.472 3.648-7.296 2.256-1.152 7.728-1.152 5.76 0 7.968 1.152 3.408 1.824 3.408 7.44zm-9.024 1.248v-28.656q0-0.768-0.768-1.632-0.72-0.912-1.584-0.912-0.768 0-1.536 0.912t-0.768 1.68v28.752q0 0.672 0.672 1.536t1.632 0.864q0.72 0 1.536-0.816t0.816-1.728z"/><path d="m287.06 61.216q0 3.504-1.488 5.664-2.016 2.784-6.24 2.832-0.528 0-1.872 0.144-1.296 0.144-1.488 0.144-0.096 0-1.488-0.144-1.344-0.144-2.064-0.144-8.112-0.24-8.112-8.208v-26.592q0-5.472 3.648-7.296 2.256-1.152 7.728-1.152 5.76 0 7.968 1.152 3.408 1.824 3.408 7.44zm-9.024 1.248v-28.656q0-0.768-0.768-1.632-0.72-0.912-1.584-0.912-0.768 0-1.536 0.912t-0.768 1.68v28.752q0 0.672 0.672 1.536t1.632 0.864q0.72 0 1.536-0.816t0.816-1.728z"/><path d="m304.83 66.592q0 1.2-2.928 1.488-0.48 0.048-3.216 0.048-3.792 0-4.656-0.24-2.88-0.72-2.88-3.648v-34.032q0-1.824 1.248-2.832 1.248-1.056 3.264-1.056 1.824 0 3.072 0.912 1.44 1.008 1.44 2.928v31.344q0 0.624 0.768 1.824 0.384 0.672 1.584 1.248 1.536 0.72 1.92 1.008 0.384 0.336 0.384 1.008z"/><path d="m350.71 31.312q-2.112 0-2.784 6.576-0.048 0.528-1.008 7.008-1.056 6.768-3.024 20.352-0.288 2.304-2.256 3.12-1.152 0.432-3.408 0.432t-3.36-0.432q-2.016-0.768-2.352-3.12-4.896-32.88-4.896-33.84 0-3.12 3.6-3.12 0.72 0 1.824 0.432 1.344 0.48 1.68 1.152 0.72 1.248 0.864 2.928 0.096 1.488 0.144 2.976 0.096 1.44 0.384 4.512 0.288 3.024 0.336 3.168 0.576 3.024 1.872 3.024 1.44 0 2.016-3.6 0.24-1.488 0.72-6.336 0.384-3.984 0.96-6.336 0.096-0.432 0.864-1.008t1.344-0.672q0.384-0.048 1.488-0.048 1.92 0 3.36 0.576t1.632 0.576z"/><path d="m368.97 45.712q0 0.912-1.824 1.776-2.016 0.912-2.352 2.16t-0.336 6.48q0 0.576-0.096 2.352-0.048 1.344 0 2.16 0.096 1.104 0.48 2.064 0.432 1.2 2.304 2.112 1.632 0.816 1.632 1.632 0 1.2-2.736 1.488-0.432 0.048-3.024 0.048-3.504 0-4.368-0.24-2.688-0.672-2.688-3.552v-32.928q0-2.88 2.832-3.6 0.864-0.192 4.224-0.192 5.76 0 5.76 1.488 0 0.816-0.528 1.152-0.96 0.432-1.92 0.912-1.344 0.816-1.68 2.208-0.192 0.864-0.192 4.176 0 3.072 0.048 3.408 0.288 1.68 1.728 2.784 0.72 0.384 1.44 0.72 1.296 0.72 1.296 1.392z"/><path d="m385.66 45.712q0 0.912-1.824 1.776-2.016 0.912-2.352 2.16t-0.336 6.48q0 0.576-0.096 2.352-0.048 1.344 0 2.16 0.096 1.104 0.48 2.064 0.432 1.2 2.304 2.112 1.632 0.816 1.632 1.632 0 1.2-2.736 1.488-0.432 0.048-3.024 0.048-3.504 0-4.368-0.24-2.688-0.672-2.688-3.552v-32.928q0-2.88 2.832-3.6 0.864-0.192 4.224-0.192 5.76 0 5.76 1.488 0 0.816-0.528 1.152-0.96 0.432-1.92 0.912-1.344 0.816-1.68 2.208-0.192 0.864-0.192 4.176 0 3.072 0.048 3.408 0.288 1.68 1.728 2.784 0.72 0.384 1.44 0.72 1.296 0.72 1.296 1.392z"/><path d="m414.01 61.024q0 0.48 0 1.488 0.048 1.056 0.048 1.536 0 2.688-0.768 3.936-1.056 1.632-3.84 1.632-2.016 0-3.264-1.056t-1.248-2.928v-10.992q0-0.96-0.768-1.776t-1.728-0.816q-0.912 0-1.68 1.056-0.624 0.864-0.624 1.488v11.088q0 2.112-1.536 3.168-1.2 0.768-2.928 0.768-1.92 0-3.168-1.056-1.248-1.008-1.248-2.784v-35.328q0-3.072 3.072-3.792 0.912-0.192 5.088-0.192 6.384 0 8.544 0.384 3.312 0.672 4.656 2.928 1.392 2.4 1.392 7.872 0 3.888-0.624 5.616 0 0.048-1.056 2.544-0.624 1.584-0.624 2.304 0 0.576 0.768 2.448 0.912 2.064 1.104 2.976 0.432 2.208 0.432 7.488zm-9.072-22.8q0-0.192 0-0.912 0.048-0.768 0.048-1.296 0-4.752-2.448-4.752t-2.448 4.848q0 0.528 0 1.248 0.048 0.72 0.048 0.816 0 0.048-0.048 0.72 0 0.672 0 1.248 0 4.944 2.448 4.944t2.448-4.704q0-0.528-0.048-1.296 0-0.72 0-0.864z"/><path d="m441.13 57.808q0 4.56-0.672 6.96-1.296 4.512-4.944 4.56-1.008 0.048-3.504 0.336-2.448 0.336-2.544 0.336-0.192 0-1.44-0.144-1.488-0.144-1.92-0.144-1.152-0.24-3.552-0.672-4.176-0.432-4.176-10.176 0-3.552 0.528-4.656 0.912-1.968 4.272-1.968 4.272 0 4.272 3.936v6.288q0 0.816 0.72 1.68t1.584 0.864q2.448 0 2.448-4.56 0-0.672-0.096-1.536-0.048-0.864-0.048-0.912 0-3.984 0.048-3.456-0.144-2.304-0.96-3.264-1.344-1.488-4.704-2.976-4.128-1.824-5.136-2.496-2.496-1.68-2.736-4.128-0.192-2.448-0.192-4.464 0-6.912 2.352-8.976 2.112-1.776 8.928-1.776 6.144 0 8.4 1.392 3.072 1.92 3.072 7.824 0 4.608-4.512 4.608-3.264 0-4.128-2.352-0.24-2.16-0.528-4.32-0.288-2.352-2.208-2.352-2.4 0-2.4 4.032 0 0.48 0.048 1.104t0.048 0.624q0 3.456-0.048 2.832 0.096 1.728 0.96 2.784 1.248 1.632 4.32 2.88 4.368 1.728 4.944 2.064 2.496 1.488 3.072 3.984 0.432 1.872 0.432 6.24z"/><path d="m457.19 45.712q0 0.912-1.824 1.776-2.016 0.912-2.352 2.16t-0.336 6.48q0 0.576-0.096 2.352-0.048 1.344 0 2.16 0.096 1.104 0.48 2.064 0.432 1.2 2.304 2.112 1.632 0.816 1.632 1.632 0 1.2-2.736 1.488-0.432 0.048-3.024 0.048-3.504 0-4.368-0.24-2.688-0.672-2.688-3.552v-32.928q0-2.88 2.832-3.6 0.864-0.192 4.224-0.192 5.76 0 5.76 1.488 0 0.816-0.528 1.152-0.96 0.432-1.92 0.912-1.344 0.816-1.68 2.208-0.192 0.864-0.192 4.176 0 3.072 0.048 3.408 0.288 1.68 1.728 2.784 0.72 0.384 1.44 0.72 1.296 0.72 1.296 1.392z"/><path d="m499.52 59.92q0 4.128-2.112 6.096-1.68 1.536-4.992 1.872-0.864 0.096-6 0.096-4.176 0-5.136-0.24-3.12-0.672-3.12-3.552v-32.928q0-2.88 2.88-3.6 0.864-0.192 5.04-0.192 5.424 0 9.696 0.912 1.392 0.288 2.496 2.208 0.912 1.584 0.912 2.784 0 0.336 0.144 1.104 0.192 0.72 0.192 0.912zm-8.352 1.152v-26.688q0-0.624-0.672-1.584-0.672-1.008-1.584-1.008-1.008 0-1.632 0.816t-0.624 1.632v26.976q0 0.864 0.672 1.536 0.672 0.72 1.488 0.72 0.912 0 1.632-0.768 0.72-0.72 0.72-1.632z"/><path d="m524.09 64.816q0 3.168-3.648 3.168-2.112 0-3.12-1.2-1.008-1.152-1.296-3.888-0.144-1.584-0.864-2.64-0.864-1.296-2.304-1.296-0.72 0-1.44 0.48-0.864 0.48-1.104 1.296-0.576 2.448-1.104 4.896-0.816 2.352-3.792 2.352-3.648 0-3.648-3.264 0-0.048 1.776-13.44 1.92-14.736 2.592-20.88 0.24-2.112 2.88-2.688 1.008-0.24 3.936-0.24 3.072 0 3.888 0.144 2.4 0.48 2.688 2.256 1.248 7.44 3.024 21.648 1.536 12.576 1.536 13.296zm-8.832-13.68q0-1.68-0.528-3.792-0.72-2.688-1.776-2.688-1.152 0-1.728 2.448-0.48 1.776-0.48 3.552 0 3.648 2.256 3.648 1.008 0 1.632-0.96t0.624-2.208z"/><path d="m556.64 65.68q0 1.728-1.056 2.736-1.008 1.056-2.736 1.056-3.552 0-3.552-3.888 0-0.384 0.048-1.104 0-0.72 0-1.008v-8.112q0-0.624-0.432-1.584-0.528-1.2-1.248-1.2-1.776 0-2.64 4.176-0.624 3.888-1.248 7.824-0.816 4.176-2.496 4.176-1.344 0-2.016-1.824-0.336-0.96-1.056-5.712-1.296-8.448-3.216-8.448-0.672 0-1.2 1.2-0.432 0.912-0.432 1.344v11.76q0 0.384-0.432 0.912-0.864 1.056-1.584 1.344-0.432 0.144-1.536 0.144-1.728 0-2.784-1.2-0.96-1.056-0.96-2.64v-35.184q0-3.984 4.992-3.984 0.24 0 1.152 0.096 0.96 0.096 1.248 0.144 0.672 0.048 1.632 0.72 1.2 0.816 2.016 4.896 0.768 3.456 1.488 6.96 1.008 3.504 2.688 3.504 1.872 0 2.88-3.504 0.672-3.504 1.392-7.008 0.864-4.128 2.256-5.04 1.2-0.768 3.792-0.768 5.04 0 5.04 3.936z"/>
</g>
<g id="waves" fill="none" stroke="#00b0ed">
  <rect x="-23" y="77" width="753" height="10" fill="#fff" stroke="none"/>
  <path d="m-21 80s5 5 10 5 10-5 10-5 5 5 10 5 10-5 10-5 5 5 10 5 10-5 10-5 5 5 10 5 10-5 10-5 5 5 10 5 10-5 10-5 5 5 10 5 10-5 10-5 5 5 10 5 10-5 10-5 5 5 10 5 10-5 10-5 5 5 10 5 10-5 10-5 5 5 10 5 10-5 10-5 5 5 10 5 10-5 10-5 5 5 10 5 10-5 10-5 5 5 10 5 10-5 10-5 5 5 10 5 10-5 10-5 5 5 10 5 10-5 10-5 5 5 10 5 10-5 10-5 5 5 10 5 10-5 10-5 5 5 10 5 10-5 10-5 5 5 10 5 10-5 10-5 5 5 10 5 10-5 10-5 5 5 10 5 10-5 10-5 5 5 10 5 10-5 10-5 5 5 10 5 10-5 10-5 5 5 10 5 10-5 10-5 6.2732 5 10 5 10-5 10-5 6.2732 5 10 5 10-5 10-5 6.2732 5 10 5 10-5 10-5 6.2732 5 10 5 10-5 10-5 5 5 10 5 10-5 10-5 5 5 10 5 10-5 10-5 5 5 10 5 10-5 10-5 5 5 10 5 10-5 10-5 5 5 10 5 10-5 10-5 5 5 10 5 10-5 10-5 5 5 10 5 10-5 10-5 5 5 10 5 10-5 10-5 5 5 10 5 10-5 10-5 5 5 10 5h11" stroke-width="4"/>
  <animate 
    attributeName="x" 
    from="0"
    to="10" 
    dur="5s"
    begin="circ-anim.end"
    fill="freeze"/>
</g>
<g fill="none" stroke="#00b0ed"><path d="m658 76s2-9-7-28-18-27-18-27-4 7-6 21 0 20 0 20 6 7 15 11 16 3 16 3z" stroke-width="4"/>
  <g transform="matrix(1.25,0,0,-1.25,883.43,-48.016)" stroke-linejoin="round">
    <path d="m6.0579-77.613s-14.992 12.332-3.0191 24.129c11.973 11.797 25.419-2.5286 25.419-2.5286s-12.8 3.2-19.2-4-3.2-17.6-3.2-17.6z" stroke-width="3.2"/>
    <path d="m6.0579-76.813 48.8-29.6-27.2 50.4" stroke="#00b0ed" stroke-width="2.4"/>
  </g>
</g>
<!-- <text x="65" y="70" fill="#000000" font-family="Elliot_Swonger" font-size="42.667px" letter-spacing="0px" word-spacing="0px" style="line-height:1.25" xml:space="preserve"><tspan x="65" y="103.95522"/></text> -->
</svg>
