<?xml version="1.0" encoding="UTF-8"?>
<svg width="20" height="20" version="1.1" viewBox="0 0 20 20" xmlns="http://www.w3.org/2000/svg">
 <title>settings</title>
 <circle cx="10" cy="10" r="9"/>
 <path d="m9 6.3164-1.6895 0.97656-1.9832-1.1497-1 1.7305 1.9872 1.1536 0.00195 1.9453-2.0103 1.1748 1 1.7305 2.0044-1.1709 1.6895 0.97461-5e-5 2.3183h2l5.3e-5 -2.3085 1.6973-0.98047 1.9754 1.1246 1-1.7305-1.9715-1.1226-2e-3 -1.9648 1.9735-1.1438-1-1.7305-1.9753 1.1458-1.6973-0.97852-1e-4 -2.3107h-2zm1 0.7774c1.6049 3.312e-4 2.9059 1.3013 2.9062 2.9062-3.31e-4 1.6049-1.3013 2.9059-2.9062 2.9062-1.6049-3.31e-4 -2.9059-1.3013-2.9062-2.9062 3.312e-4 -1.6049 1.3013-2.9059 2.9062-2.9062z" fill="none" stroke="#fff" stroke-linejoin="round" stroke-width="2"/>
</svg>
