<?xml version="1.0" encoding="UTF-8"?>
<svg version="1.1" viewBox="0 0 96 96" xmlns="http://www.w3.org/2000/svg" xmlns:cc="http://creativecommons.org/ns#">
 <style type="text/css">.st0{fill:#999;}</style>
 <rect x="-1" y="-1" width="98" height="98" fill="#fff" stroke-width="1.0208"/>
 <g id="XMLID_1_" transform="matrix(1.3888 0 0 1.3846 -18.527 -18.462)">
  <path id="XMLID_8_" class="st0" d="m48 15.5c-17.9 0-32.5 14.6-32.5 32.5s14.6 32.5 32.5 32.5c2.2 0 4.4-0.2 6.4-0.7-0.8-0.4-0.9-3.4-0.1-5.1 0.9-1.9 3.8-6.7 0.9-8.4-2.8-1.6-2-2.3-3.8-4.2-1.7-1.9-1-2.2-1.2-2.7-0.4-1.6 1.7-4.1 1.8-4.4v-1.5l-1.6-1.1-0.9 0.6c-0.4 0.1-2.3-1.2-2.7-1.5-0.4-0.4-0.7-1.1-1.3-1.6-0.6-0.6-0.7-0.1-1.5-0.5s-3.7-1.4-6-2.2c-2.2-0.9-2.4-2.2-2.4-3.1-0.1-0.9-1.4-2.2-2-3.1-0.7-0.9-0.7-2.2-0.9-1.9l0.9 3.8c-0.2 0.1-0.7-0.9-1.4-1.8s0.7-0.4-1.4-4.4 0.7-6 0.8-8.1 1.8 0.8 0.9-0.6 0-4.1-0.7-5.2c-0.6-1-4.1 1.2-4.1 1.2 0.1-1 3.2-2.7 5.4-4.3s3.6-0.3 5.4 0.2c1.8 0.6 1.9 0.4 1.3-0.2s0.3-0.8 1.7-0.6c1.3 0.2 1.8 1.9 3.9 1.7 2.2-0.1 0.2 0.4 0.5 1s-0.3 0.5-1.8 1.4c-1.4 0.9 0.1 1 2.6 2.8s1.8-1.2 1.4-2.6c-0.3-1.4 1.8-0.3 1.8-0.3 1.5 1 1.3 0.1 2.3 0.4 1.1 0.3 4.2 3 4.2 3-3.9 2-1.4 2.2-0.8 2.7 0.7 0.5-1.3 1.4-1.3 1.4-0.8-0.8-0.9 0.1-1.4 0.4s-0.1 1-0.1 1c-2.6 0.4-2 3.2-2 3.9s-1.8 1.7-2.2 2.7c-0.4 0.9 1.2 3 0.3 3.1s-1.6-3.1-6.1-1.9c-1.4 0.4-4.4 1.9-2.7 5 1.7 3.2 4.3-0.9 5.2-0.4s-0.3 2.5-0.1 2.6 2.5 0.1 2.6 2.8 3.6 2.5 4.3 2.6c0.8 0 3.3-2 3.6-2.1s1.8-1.3 4.8 0.4c3.1 1.7 4.6 1.4 5.6 2.2 1 0.7 0.4 2.2 1.3 2.7s4.9-0.1 6 1.4c1 1.6-4.1 9.7-5.7 10.6s-2.2 3-3.9 4.3-3.8 3-5.9 4.2c-1.9 1.1-2.2 3.1-3.1 3.7 14.6-3.3 25.5-16.3 25.5-31.8 0.2-17.9-14.4-32.5-32.3-32.5zm7.7 30.5c-0.4 0.1-1.3 1-3.6-0.4-2.2-1.4-3.8-1.1-4-1.3 0 0-0.2-0.5 0.8-0.7 2-0.2 4.6 1.9 5.2 1.9s0.9-0.6 1.9-0.2c0.9 0.4 0.1 0.6-0.3 0.7zm-10.7-27.3 0.4-0.7 0.2-0.7c0.5-0.5 2.8-1.2 2.4 0.1-0.5 1.4-2.7 1.5-3 1.3zm5.7 4.1c-0.9-0.1-2.7-0.2-2.4-0.7 1.4-1.3-0.4-1.8-1.6-1.8-1.2-0.1-1.6-0.7-1-0.9 0.6-0.1 2.8 0.1 3.3 0.4 0.4 0.3 2.4 1.2 2.6 1.8 0 0.7-0.1 1.2-0.9 1.2zm6.8-0.2c-0.7 0.4-3.9-1.9-4.4-2.4-2.6-2.2-4.1-1.4-4.6-1.9s-0.4-0.9 0.5-1.6 3.2 0.3 4.6 0.4 3.1 1.3 3.1 2.6c0.1 1.1 1.5 2.3 0.8 2.9z" fill="#333"/>
 </g>
</svg>
